<svg width="81" height="81" viewBox="0 0 81 81" fill="none" xmlns="http://www.w3.org/2000/svg">
<path d="M13.5 60.75H67.5C69.3563 60.75 70.875 59.2313 70.875 57.375C70.875 55.5187 69.3563 54 67.5 54H13.5C11.6437 54 10.125 55.5187 10.125 57.375C10.125 59.2313 11.6437 60.75 13.5 60.75ZM13.5 43.875H67.5C69.3563 43.875 70.875 42.3563 70.875 40.5C70.875 38.6437 69.3563 37.125 67.5 37.125H13.5C11.6437 37.125 10.125 38.6437 10.125 40.5C10.125 42.3563 11.6437 43.875 13.5 43.875ZM10.125 23.625C10.125 25.4812 11.6437 27 13.5 27H67.5C69.3563 27 70.875 25.4812 70.875 23.625C70.875 21.7687 69.3563 20.25 67.5 20.25H13.5C11.6437 20.25 10.125 21.7687 10.125 23.625Z" fill="white"/>
</svg>
