<svg width="34" height="34" viewBox="0 0 34 34" fill="none" xmlns="http://www.w3.org/2000/svg">
<path d="M17 8.35829C18.6433 8.35829 19.975 9.68996 19.975 11.3333C19.975 12.9766 18.6433 14.3083 17 14.3083C15.3566 14.3083 14.025 12.9766 14.025 11.3333C14.025 9.68996 15.3566 8.35829 17 8.35829ZM17 21.1083C21.2075 21.1083 25.6416 23.1766 25.6416 24.0833V25.6416H8.35829V24.0833C8.35829 23.1766 12.7925 21.1083 17 21.1083ZM17 5.66663C13.8691 5.66663 11.3333 8.20246 11.3333 11.3333C11.3333 14.4641 13.8691 17 17 17C20.1308 17 22.6666 14.4641 22.6666 11.3333C22.6666 8.20246 20.1308 5.66663 17 5.66663ZM17 18.4166C13.2175 18.4166 5.66663 20.315 5.66663 24.0833V28.3333H28.3333V24.0833C28.3333 20.315 20.7825 18.4166 17 18.4166Z" fill="#6D6D6D"/>
</svg>
